<svg xmlns="http://www.w3.org/2000/svg" width="96" height="96" fill="none" viewBox="0 0 96 96">
  <rect width="62" height="62" x="17" y="17" fill="#fff" rx="31"/>
  <path fill="#000" d="M40 47.726a.75.75 0 0 1 .648-.743l.102-.007h13.184l-4.763-4.743a.75.75 0 0 1 .974-1.136l.084.073 6.05 6.024a.751.751 0 0 1 .22.503l.001.029v.029l-.003.044.003-.073a.753.753 0 0 1-.148.446l-.006.01a.753.753 0 0 1-.066.074l-6.05 6.026a.75.75 0 0 1-1.132-.98l.073-.083 4.761-4.743H40.75a.75.75 0 0 1-.75-.75Z"/>
  <circle cx="48" cy="48" r="47" stroke="#fff" stroke-width="2" opacity=".08"/>
  <path stroke="#E78B2F" stroke-linecap="round" stroke-width="2" d="M48 1a47 47 0 0 1 47 47"/>
</svg>
