<svg xmlns="http://www.w3.org/2000/svg" width="19" height="20" fill="none" viewBox="0 0 19 20">
  <path fill="#E78B2F" d="M10.643 14.396a.828.828 0 0 1-.22-.604.902.902 0 0 1 .24-.604l2.16-2.355H4.297a.71.71 0 0 1-.545-.24.845.845 0 0 1-.22-.593.85.85 0 0 1 .22-.594.711.711 0 0 1 .545-.24h8.526l-2.18-2.374a.85.85 0 0 1-.229-.594c0-.23.077-.427.23-.594a.716.716 0 0 1 1.09 0l3.497 3.813c.077.083.13.173.163.27a1 1 0 0 1 .047.313 1 1 0 0 1-.047.313.747.747 0 0 1-.163.27l-3.517 3.834a.683.683 0 0 1-.525.229.716.716 0 0 1-.546-.25Z"/>
</svg>
