<?xml version="1.0" encoding="UTF-8" standalone="no" ?>
<!DOCTYPE svg PUBLIC "-//W3C//DTD SVG 1.1//EN" "http://www.w3.org/Graphics/SVG/1.1/DTD/svg11.dtd">
<svg xmlns="http://www.w3.org/2000/svg" xmlns:xlink="http://www.w3.org/1999/xlink" version="1.1" width="1280" height="1024" viewBox="0 0 1280 1024" xml:space="preserve">
<desc>Created with Fabric.js 4.4.0</desc>
<defs>
</defs>
<g transform="matrix(1 0 0 1 640 512)" id="background-logo"  >
<rect style="stroke: none; stroke-width: 0; stroke-dasharray: none; stroke-linecap: butt; stroke-dashoffset: 0; stroke-linejoin: miter; stroke-miterlimit: 4; fill: rgb(255,255,255); fill-opacity: 0; fill-rule: nonzero; opacity: 1;"  paint-order="stroke"  x="-640" y="-512" rx="0" ry="0" width="1280" height="1024" />
</g>
<g transform="matrix(1.9211538461538462 0 0 1.9211538461538462 640 352.31271839217914)" id="logo-logo"  >
<g style=""  paint-order="stroke"   >
		<g transform="matrix(0.7820119385667094 0 0 -0.7820119385667093 39.36356792002971 2.272135687505539)"  >
<linearGradient id="SVGID_5_5_213915" gradientUnits="userSpaceOnUse" gradientTransform="matrix(1 0 0 1 -27.827 -202.458)"  x1="0" y1="0" x2="0" y2="337">
<stop offset="0%" style="stop-color:rgb(250,217,97);stop-opacity: 1"/>
<stop offset="100%" style="stop-color:rgb(247,107,28);stop-opacity: 1"/>
</linearGradient>
<path style="stroke: none; stroke-width: 1; stroke-dasharray: none; stroke-linecap: butt; stroke-dashoffset: 0; stroke-linejoin: miter; stroke-miterlimit: 4; fill: url(#SVGID_5_5_213915); fill-rule: nonzero; opacity: 1;"  paint-order="stroke"  transform=" translate(-16.96242490671838, 33.803)" d="M 0 0 C 7.792 14.188 33.8 18.467 56.82 19.326 C 52.256 23.771 47.348 27.86 42.171 31.597 L 42.171 109.494 L 11.53 109.494 L 11.53 47.951 C 8.927999999999999 48.916000000000004 6.286 49.798 3.605999999999999 50.596000000000004 L 3.605999999999999 134.852 L -27.827 115.833 L -27.827 55.877 L -27.827 42.931 L -27.827 -202.458 C 7.027999999999995 -200.98499999999999 38.295 -185.712 60.69 -161.964 C 68.18599999999999 -116.453 34.458999999999996 -66.956 7.795999999999999 -33.077 C -2.351 -20.185 -4.972 -9.057 0 0" stroke-linecap="round" />
</g>
		<g transform="matrix(0.7820119385667094 0 0 -0.7820119385667093 -66.99847157587305 29.970920350344556)"  >
<linearGradient id="SVGID_5_5_213916" gradientUnits="userSpaceOnUse" gradientTransform="matrix(1 0 0 1 -86.209 -141.515)"  x1="0" y1="0" x2="0" y2="155">
<stop offset="0%" style="stop-color:rgb(250,217,97);stop-opacity: 1"/>
<stop offset="100%" style="stop-color:rgb(247,107,28);stop-opacity: 1"/>
</linearGradient>
<path style="stroke: none; stroke-width: 1; stroke-dasharray: none; stroke-linecap: butt; stroke-dashoffset: 0; stroke-linejoin: miter; stroke-miterlimit: 4; fill: url(#SVGID_5_5_213916); fill-rule: nonzero; opacity: 1;"  paint-order="stroke"  transform=" translate(42.576636886567734, 63.88199999999999)" d="M 0 0 C -5.692 10.371 -32.11 13.734 -57.114 13.751 C -75.294 -8.520000000000001 -86.209 -36.957 -86.209 -67.951 C -86.209 -95.28899999999999 -77.70400000000001 -120.627 -63.226 -141.515 C -62.635 -98.05199999999999 -33.647 -54.999999999999986 -6.7890000000000015 -20.87299999999999 C 0.344 -11.811 2.628 -4.787 0 0" stroke-linecap="round" />
</g>
		<g transform="matrix(0.7820119385667094 0 0 -0.7820119385667093 66.9987858615832 29.970138338406002)"  >
<linearGradient id="SVGID_5_5_213917" gradientUnits="userSpaceOnUse" gradientTransform="matrix(1 0 0 1 -58.166922439365365 -155.267)"  x1="0" y1="0" x2="0" y2="155">
<stop offset="0%" style="stop-color:rgb(250,217,97);stop-opacity: 1"/>
<stop offset="100%" style="stop-color:rgb(247,107,28);stop-opacity: 1"/>
</linearGradient>
<path style="stroke: none; stroke-width: 1; stroke-dasharray: none; stroke-linecap: butt; stroke-dashoffset: 0; stroke-linejoin: miter; stroke-miterlimit: 4; fill: url(#SVGID_5_5_213917); fill-rule: nonzero; opacity: 1;"  paint-order="stroke"  transform=" translate(14.534961219682685, 77.6335)" d="M 0 0 C -25.003 -0.017 -51.418 -3.381 -57.111 -13.752 C -59.739 -18.54 -57.455999999999996 -25.563000000000002 -50.324 -34.625 C -23.465999999999998 -68.75200000000001 5.523000000000003 -111.804 6.112000000000002 -155.267 C 20.591 -134.379 29.097 -109.042 29.097 -81.704 C 29.097 -50.709 18.181 -22.272 0 0" stroke-linecap="round" />
</g>
		<g transform="matrix(0.7820119385667094 0 0 -0.7820119385667093 -39.36445708246532 -2.842171e-14)"  >
<linearGradient id="SVGID_5_5_213918" gradientUnits="userSpaceOnUse" gradientTransform="matrix(1 0 0 1 -83.52732385144502 -318.29200000000003)"  x1="0" y1="0" x2="0" y2="343">
<stop offset="0%" style="stop-color:rgb(250,217,97);stop-opacity: 1"/>
<stop offset="100%" style="stop-color:rgb(247,107,28);stop-opacity: 1"/>
</linearGradient>
<path style="stroke: none; stroke-width: 1; stroke-dasharray: none; stroke-linecap: butt; stroke-dashoffset: 0; stroke-linejoin: miter; stroke-miterlimit: 4; fill: url(#SVGID_5_5_213918); fill-rule: nonzero; opacity: 1;"  paint-order="stroke"  transform=" translate(38.73716192572251, 146.73100000000002)" d="M 0 0 L -11.193 0 L -11.193 24.83 L -18.17 24.83 L -18.17 0 L -29.363 0 L -29.363 -20.074 L -35.416 -20.074 L -35.416 -68.668 C -41.467 -71.033 -47.283 -73.855 -52.849999999999994 -77.06500000000001 L -52.849999999999994 6.868 L -78.593 6.868 L -78.593 -96.507 C -55.575 -97.366 -29.565000000000005 -101.646 -21.775000000000006 -115.833 C -16.801000000000005 -124.89099999999999 -19.423000000000005 -136.019 -29.568000000000005 -148.911 C -56.233000000000004 -182.79 -89.96000000000001 -232.28300000000002 -82.46600000000001 -277.797 C -60.07000000000001 -301.545 -28.80300000000001 -316.819 6.052999999999997 -318.29200000000003 L 6.052999999999997 -76.07300000000004 L 6.052999999999997 -59.957000000000036 L 6.052999999999997 -20.074000000000034 L 0 -20.074000000000034 Z" stroke-linecap="round" />
</g>
</g>
</g>
<g transform="matrix(1.9211538461538462 0 0 1.9211538461538462 641.173825 732.4267695733306)" id="text-logo-path-group"  >
<g style=""  paint-order="stroke"   >
		<g transform="matrix(1 0 0 1 0 0)" id="text-logo-path-0"  >
<path style="stroke: none; stroke-width: 0; stroke-dasharray: none; stroke-linecap: butt; stroke-dashoffset: 0; stroke-linejoin: miter; stroke-miterlimit: 4; fill: rgb(255,136,51); fill-rule: nonzero; opacity: 1;"  paint-order="stroke"  transform=" translate(-140.905, 32.71)" d="M 20.96 0 L 4.14 0 Q 3.76 0 3.76 -0.47 L 3.76 -0.47 L 3.95 -65.05 Q 3.95 -65.42 4.32 -65.42 L 4.32 -65.42 L 22.37 -65.42 Q 27.73 -65.42 31.96 -62.84 Q 36.19 -60.25 38.63 -56.02 Q 41.08 -51.79 41.08 -46.81 L 41.08 -46.81 Q 41.08 -42.77 39.24 -39.29 Q 37.41 -35.81 34.87 -33.65 L 34.87 -33.65 Q 37.6 -30.93 39.1 -27.35 Q 40.61 -23.78 40.61 -19.83 L 40.61 -19.83 Q 40.61 -14.38 37.98 -9.87 Q 35.34 -5.36 30.88 -2.68 Q 26.41 0 20.96 0 L 20.96 0 Z M 15.23 -54.24 L 15.23 -39.48 L 22.37 -39.48 Q 25.66 -39.48 27.68 -41.78 Q 29.7 -44.09 29.7 -46.81 L 29.7 -46.81 Q 29.7 -49.82 27.54 -52.03 Q 25.38 -54.24 22.37 -54.24 L 22.37 -54.24 L 15.23 -54.24 Z M 15.23 -28.11 L 15.13 -11.47 L 20.96 -11.47 Q 24.35 -11.47 26.79 -13.96 Q 29.23 -16.45 29.23 -19.83 L 29.23 -19.83 Q 29.23 -23.22 26.79 -25.66 Q 24.35 -28.11 20.96 -28.11 L 20.96 -28.11 L 15.23 -28.11 Z M 42.3 -0.47 L 42.3 -0.47 L 53.96 -65.05 Q 54.05 -65.42 54.43 -65.42 L 54.43 -65.42 L 68.06 -65.42 Q 68.43 -65.42 68.53 -65.05 L 68.53 -65.05 L 79.71 -0.47 Q 79.81 0 79.34 0 L 79.34 0 L 68.9 0 Q 68.53 0 68.43 -0.47 L 68.43 -0.47 L 67.4 -7.33 L 54.61 -7.33 L 53.58 -0.47 Q 53.49 0 53.11 0 L 53.11 0 L 42.68 0 Q 42.3 0 42.3 -0.47 Z M 60.72 -43.8 L 56.49 -17.39 L 65.52 -17.39 L 61.66 -43.8 L 61.1 -47.28 L 60.72 -43.8 Z M 116.37 0 L 86.01 0 Q 85.63 0 85.63 -0.47 L 85.63 -0.47 L 85.73 -64.95 Q 85.73 -65.42 86.2 -65.42 L 86.2 -65.42 L 96.63 -65.42 Q 97.1 -65.42 97.1 -64.95 L 97.1 -64.95 L 97.01 -11.56 L 116.37 -11.56 Q 116.84 -11.56 116.84 -11.09 L 116.84 -11.09 L 116.84 -0.47 Q 116.84 0 116.37 0 L 116.37 0 Z M 153.69 0 L 123.33 0 Q 122.95 0 122.95 -0.47 L 122.95 -0.47 L 123.05 -64.95 Q 123.05 -65.42 123.52 -65.42 L 123.52 -65.42 L 133.95 -65.42 Q 134.42 -65.42 134.42 -64.95 L 134.42 -64.95 L 134.33 -11.56 L 153.69 -11.56 Q 154.16 -11.56 154.16 -11.09 L 154.16 -11.09 L 154.16 -0.47 Q 154.16 0 153.69 0 L 153.69 0 Z M 191.01 0 L 160.65 0 Q 160.27 0 160.27 -0.47 L 160.27 -0.47 L 160.36 -65.05 Q 160.36 -65.42 160.74 -65.42 L 160.74 -65.42 L 190.91 -65.42 Q 191.29 -65.42 191.29 -64.95 L 191.29 -64.95 L 191.29 -54.43 Q 191.29 -54.05 190.91 -54.05 L 190.91 -54.05 L 171.64 -54.05 L 171.64 -39.39 L 190.91 -39.39 Q 191.29 -39.39 191.29 -39.01 L 191.29 -39.01 L 191.38 -28.39 Q 191.38 -28.01 191.01 -28.01 L 191.01 -28.01 L 171.64 -28.01 L 171.64 -11.56 L 191.01 -11.56 Q 191.38 -11.56 191.38 -11.09 L 191.38 -11.09 L 191.38 -0.38 Q 191.38 0 191.01 0 L 191.01 0 Z M 210.75 0 L 200.13 0 Q 199.75 0 199.75 -0.47 L 199.75 -0.47 L 199.94 -65.05 Q 199.94 -65.42 200.31 -65.42 L 200.31 -65.42 L 219.3 -65.42 Q 224.38 -65.42 228.65 -62.93 Q 232.93 -60.44 235.47 -56.26 Q 238.01 -52.08 238.01 -46.81 L 238.01 -46.81 Q 238.01 -43.33 236.97 -40.56 Q 235.94 -37.79 234.53 -35.86 Q 233.12 -33.93 231.99 -32.99 L 231.99 -32.99 Q 237.07 -27.35 237.07 -19.74 L 237.07 -19.74 L 237.16 -0.47 Q 237.16 0 236.69 0 L 236.69 0 L 226.07 0 Q 225.69 0 225.69 -0.28 L 225.69 -0.28 L 225.69 -19.74 Q 225.69 -23.12 223.3 -25.61 Q 220.9 -28.11 217.42 -28.11 L 217.42 -28.11 L 211.22 -28.11 L 211.12 -0.47 Q 211.12 0 210.75 0 L 210.75 0 Z M 211.22 -54.14 L 211.22 -39.39 L 219.3 -39.39 Q 222.22 -39.39 224.47 -41.55 Q 226.73 -43.71 226.73 -46.81 L 226.73 -46.81 Q 226.73 -49.82 224.52 -51.98 Q 222.31 -54.14 219.3 -54.14 L 219.3 -54.14 L 211.22 -54.14 Z M 277.58 0 L 242.52 0 Q 242.05 0 242.05 -0.47 L 242.05 -0.47 L 242.14 -10.72 L 265.17 -54.71 L 243.37 -54.71 Q 242.99 -54.71 242.99 -55.08 L 242.99 -55.08 L 242.99 -64.95 Q 242.99 -65.42 243.37 -65.42 L 243.37 -65.42 L 277.39 -65.42 Q 277.86 -65.42 277.86 -64.95 L 277.86 -64.95 L 277.86 -54.8 L 254.93 -11 L 277.58 -11 Q 277.96 -11 277.96 -10.53 L 277.96 -10.53 L 278.05 -0.47 Q 278.05 0 277.58 0 L 277.58 0 Z" stroke-linecap="round" />
</g>
</g>
</g>
</svg>