<svg width="124" height="124" viewBox="0 0 124 124" fill="none" xmlns="http://www.w3.org/2000/svg">
<mask id="mask0_121_1030" style="mask-type:luminance" maskUnits="userSpaceOnUse" x="0" y="0" width="124" height="124">
<path d="M124 0H0V124H124V0Z" fill="white"/>
</mask>
<g mask="url(#mask0_121_1030)">
<g opacity="0.3">
<path d="M63.6389 18.1013C87.8666 18.1013 107.538 37.7723 107.538 62C107.538 86.2277 87.8666 105.899 63.6389 105.899C39.4112 105.899 19.7402 86.2277 19.7402 62C19.7402 37.7723 39.4112 18.1013 63.6389 18.1013Z" fill="#FFEFEA"/>
<path d="M63.6389 18.1013C87.8666 18.1013 107.538 37.7723 107.538 62C107.538 86.2277 87.8666 105.899 63.6389 105.899C39.4112 105.899 19.7402 86.2277 19.7402 62C19.7402 37.7723 39.4112 18.1013 63.6389 18.1013Z" stroke="#4791B6" stroke-width="2.577" stroke-miterlimit="10"/>
</g>
<path d="M29.5019 20.297C31.6968 20.297 33.4789 22.0791 33.4789 24.274C33.4789 26.4689 31.6968 28.251 29.5019 28.251C27.307 28.251 25.5249 26.4689 25.5249 24.274C25.5249 22.0791 27.307 20.297 29.5019 20.297Z" fill="url(#paint0_linear_121_1030)"/>
<path d="M32.2283 58.907C32.9184 58.907 33.4786 59.4672 33.4786 60.1573C33.4786 60.8473 32.9184 61.4076 32.2283 61.4076C31.5383 61.4076 30.978 60.8473 30.978 60.1573C30.978 59.4672 31.5383 58.907 32.2283 58.907Z" fill="url(#paint1_linear_121_1030)"/>
<path d="M93.5267 28.251C94.9147 28.251 96.0417 29.3779 96.0417 30.7659C96.0417 32.154 94.9147 33.2809 93.5267 33.2809C92.1387 33.2809 91.0117 32.154 91.0117 30.7659C91.0117 29.3779 92.1387 28.251 93.5267 28.251Z" fill="#E78B2F"/>
<path d="M100.73 91.9218C102.234 91.9218 103.456 93.1436 103.456 94.6484C103.456 96.1532 102.234 97.375 100.73 97.375C99.2247 97.375 98.0029 96.1532 98.0029 94.6484C98.0029 93.1436 99.2247 91.9218 100.73 91.9218Z" fill="url(#paint2_linear_121_1030)"/>
<path d="M17.9983 81.7715C18.8459 81.7715 19.5341 82.4597 19.5341 83.3073C19.5341 84.155 18.8459 84.8432 17.9983 84.8432C17.1506 84.8432 16.4624 84.155 16.4624 83.3073C16.4624 82.4597 17.1506 81.7715 17.9983 81.7715Z" fill="url(#paint3_linear_121_1030)"/>
<path d="M84.406 52.9988L68.536 42.6152C66.1442 40.9722 62.99 40.9722 60.5982 42.6152L44.7283 52.9988C43.2058 54.1645 42.3125 55.9725 42.3125 57.891V76.2367C42.3125 79.6478 45.0766 82.412 48.4877 82.412H80.6466C84.0576 82.412 86.8218 79.6478 86.8218 76.2367V57.891C86.8218 55.9725 85.9285 54.1645 84.406 52.9988Z" fill="url(#paint4_linear_121_1030)"/>
<mask id="mask1_121_1030" style="mask-type:alpha" maskUnits="userSpaceOnUse" x="27" y="70" width="77" height="57">
<path d="M103.416 70.928V126.232H27.2798V70.928H103.416Z" fill="#F67B52"/>
</mask>
<g mask="url(#mask1_121_1030)">
<path d="M79.9147 82.4129V39.4383C79.9147 38.5903 79.228 37.9036 78.38 37.9036H50.7535C49.9055 37.9036 49.2188 38.5903 49.2188 39.4383V82.4129H79.9147Z" fill="white"/>
<path d="M79.9147 82.4129V39.4383C79.9147 38.5903 79.228 37.9036 78.38 37.9036H50.7535C49.9055 37.9036 49.2188 38.5903 49.2188 39.4383V82.4129H79.9147Z" stroke="url(#paint5_linear_121_1030)" stroke-width="2.577" stroke-miterlimit="10"/>
</g>
<path d="M86.8213 57.8944V76.2335C86.8213 77.8735 86.1706 79.4444 85.014 80.6048C83.8537 81.7613 82.2828 82.4121 80.6428 82.4121H48.4906C46.8506 82.4121 45.2797 81.7613 44.1193 80.6048C42.9628 79.4444 42.312 77.8735 42.312 76.2335V57.8944C42.3091 56.9259 42.5369 55.9696 42.9805 55.1093L60.5977 70.7928C62.8876 72.7388 66.2458 72.7388 68.5357 70.7928L86.1529 55.1093C86.5965 55.9696 86.8243 56.9259 86.8213 57.8944Z" fill="url(#paint6_linear_121_1030)"/>
<path d="M85.2711 80.3253C84.1022 81.6538 82.4146 82.4149 80.6426 82.4119H48.4903C46.844 82.4149 45.2678 81.7582 44.1167 80.5864L60.6365 65.9817C62.882 64.0035 66.2508 64.0035 68.4965 65.9817L85.2711 80.3253Z" fill="#FF9C7A"/>
</g>
<defs>
<linearGradient id="paint0_linear_121_1030" x1="26.5772" y1="21.3395" x2="32.2015" y2="26.9638" gradientUnits="userSpaceOnUse">
<stop stop-color="#FF9C7A"/>
<stop offset="0.5" stop-color="#FF7142"/>
<stop offset="1" stop-color="#FF4405"/>
</linearGradient>
<linearGradient id="paint1_linear_121_1030" x1="31.289" y1="59.2588" x2="33.0573" y2="61.027" gradientUnits="userSpaceOnUse">
<stop stop-color="#FF9C7A"/>
<stop offset="0.5" stop-color="#FF7142"/>
<stop offset="1" stop-color="#FF4405"/>
</linearGradient>
<linearGradient id="paint2_linear_121_1030" x1="98.6709" y1="92.5901" x2="102.527" y2="96.4461" gradientUnits="userSpaceOnUse">
<stop stop-color="#FF9C7A"/>
<stop offset="0.5" stop-color="#FF7142"/>
<stop offset="1" stop-color="#FF4405"/>
</linearGradient>
<linearGradient id="paint3_linear_121_1030" x1="16.4338" y1="83.2156" x2="19.5055" y2="83.2156" gradientUnits="userSpaceOnUse">
<stop stop-color="#E78B2F"/>
<stop offset="0.5" stop-color="#E78B2F"/>
<stop offset="1" stop-color="#FF4405"/>
</linearGradient>
<linearGradient id="paint4_linear_121_1030" x1="33.5436" y1="35.9468" x2="65.0164" y2="67.4196" gradientUnits="userSpaceOnUse">
<stop stop-color="#FF9C7A"/>
<stop offset="0.46" stop-color="#FF7142"/>
<stop offset="0.91" stop-color="#FF4405"/>
</linearGradient>
<linearGradient id="paint5_linear_121_1030" x1="49.0432" y1="60.1277" x2="80.0588" y2="60.1277" gradientUnits="userSpaceOnUse">
<stop stop-color="#FFECE5"/>
<stop offset="0.5" stop-color="#FFD9CC"/>
<stop offset="1" stop-color="#FFC6B2"/>
</linearGradient>
<linearGradient id="paint6_linear_121_1030" x1="45.8191" y1="48.4709" x2="84.2703" y2="86.9221" gradientUnits="userSpaceOnUse">
<stop stop-color="#FF9C7A"/>
<stop offset="0.46" stop-color="#FF7142"/>
<stop offset="0.91" stop-color="#FF4405"/>
</linearGradient>
</defs>
</svg>
